<?xml version="1.0" standalone="no"?>
<!DOCTYPE svg PUBLIC "-//W3C//DTD SVG 20010904//EN"
 "http://www.w3.org/TR/2001/REC-SVG-20010904/DTD/svg10.dtd">
<svg version="1.0" xmlns="http://www.w3.org/2000/svg"
 width="299.000000pt" height="168.000000pt" viewBox="0 0 299.000000 168.000000"
 preserveAspectRatio="xMidYMid meet">

<g transform="translate(0.000000,168.000000) scale(0.100000,-0.100000)"
fill="red" stroke="none">
<path d="M280 794 l0 -326 23 6 c12 3 34 6 49 6 l28 0 2 177 3 177 54 -160
c30 -87 57 -162 60 -166 4 -4 30 -5 59 -1 l52 6 0 303 0 304 -50 0 -50 0 -2
-177 -3 -178 -62 167 c-35 92 -63 172 -63 178 0 5 -22 10 -50 10 l-50 0 0
-326z"/>
<path d="M710 819 l0 -301 28 6 c15 3 78 8 140 12 l112 6 0 49 0 49 -90 -7
-91 -6 3 79 3 79 68 3 67 3 0 44 0 45 -70 0 -70 0 0 70 0 70 90 0 90 0 0 50 0
50 -140 0 -140 0 0 -301z"/>
<path d="M1060 1070 l0 -50 55 0 55 0 0 -236 0 -236 31 6 c17 3 40 6 50 6 18
0 19 12 19 230 l0 230 55 0 55 0 0 50 0 50 -160 0 -160 0 0 -50z"/>
<path d="M1450 840 l0 -280 45 0 45 0 0 115 0 115 70 0 70 0 0 50 0 50 -70 0
-70 0 0 65 0 65 95 0 95 0 0 50 0 50 -140 0 -140 0 0 -280z"/>
<path d="M1800 835 l0 -285 58 0 c33 0 94 -3 136 -7 l77 -6 -3 49 -3 49 -82 3
c-76 3 -83 5 -88 25 -3 12 -5 120 -3 240 l3 217 -47 0 -48 0 0 -285z"/>
<path d="M2160 826 l0 -294 50 -4 50 -3 0 298 0 297 -50 0 -50 0 0 -294z"/>
<path d="M2372 1068 c11 -29 31 -82 45 -118 14 -36 31 -80 39 -98 15 -36 18
-28 -74 -239 -39 -89 -39 -91 -18 -97 11 -3 35 -6 52 -6 28 0 32 5 64 80 19
44 37 80 40 80 4 0 23 -42 42 -92 l36 -93 53 -7 c30 -3 54 -6 55 -5 1 1 -19
54 -43 117 -24 63 -54 140 -65 171 l-21 55 41 95 c22 52 52 120 66 152 l26 57
-54 0 -55 0 -26 -57 c-14 -31 -28 -67 -31 -80 -10 -38 -23 -23 -56 60 l-31 77
-53 0 -53 0 21 -52z"/>
</g>
</svg>
